<svg width="96" height="96" viewBox="0 0 96 96" fill="none" xmlns="http://www.w3.org/2000/svg">
<g clip-path="url(#clip0_1333_15)">
<mask id="mask0_1333_15" style="mask-type:luminance" maskUnits="userSpaceOnUse" x="0" y="0" width="96" height="96">
<path d="M96 0H0V96H96V0Z" fill="white"/>
</mask>
<g mask="url(#mask0_1333_15)">
<path d="M66.4588 89.2094C69.7392 88.8809 72.2846 86.2135 72.4875 82.9227C73.1863 71.6092 73.5579 60.582 73.5579 47.9992C73.5579 35.4164 73.1863 24.3892 72.4875 13.0756C72.2846 9.78494 69.7392 7.11758 66.4588 6.78921C47.6089 4.90225 31.0918 4.90225 12.2418 6.78922C8.96119 7.11758 6.41596 9.78494 6.21279 13.0756C5.51428 24.3892 5.14286 35.4164 5.14286 47.9992C5.14286 60.582 5.51428 71.6092 6.21279 82.9227C6.41596 86.2135 8.96119 88.8809 12.2418 89.2094C31.0917 91.0965 47.6089 91.0965 66.4588 89.2094Z" stroke="black" stroke-width="7" stroke-linecap="round" stroke-linejoin="round"/>
<path d="M73.5573 13.7803H83.6139C85.9536 13.7803 88.211 14.9403 89.1758 17.072C91.6375 22.5081 91.272 27.6919 88.8775 35.6853C88.0354 38.4964 85.3968 40.3583 82.4626 40.3583H73.5573V13.7803Z" stroke="black" stroke-width="7" stroke-linecap="round" stroke-linejoin="round"/>
<path d="M73.5573 40.3586H83.6139C85.9536 40.3586 88.211 41.5186 89.1758 43.6502C91.6375 49.0863 91.272 54.27 88.8775 62.2635C88.0354 65.0746 85.3968 66.9364 82.4626 66.9364H73.5573V40.3586Z" stroke="black" stroke-width="7" stroke-linecap="round" stroke-linejoin="round"/>
<path d="M29.4928 23.5954H49.2002C49.2002 23.5954 54.3431 23.5954 54.3431 28.7382V35.6639C54.3431 35.6639 54.3431 40.8068 49.2002 40.8068H29.4928C29.4928 40.8068 24.3499 40.8068 24.3499 35.6639V28.7382C24.3499 28.7382 24.3499 23.5954 29.4928 23.5954Z" stroke="black" stroke-width="7" stroke-linecap="round" stroke-linejoin="round"/>
</g>
</g>
<defs>
<clipPath id="clip0_1333_15">
<rect width="96" height="96" fill="white"/>
</clipPath>
</defs>
</svg>
