<svg width="14" height="14" viewBox="0 0 14 14" fill="none" xmlns="http://www.w3.org/2000/svg">
<g clip-path="url(#clip0_1284_2)">
<path d="M9.69191 13.0097C10.1703 12.9618 10.5415 12.5728 10.5711 12.0929C10.673 10.443 10.7272 8.83487 10.7272 6.99988C10.7272 5.16489 10.673 3.55676 10.5711 1.90686C10.5415 1.42697 10.1703 1.03798 9.69191 0.990093C6.94296 0.714911 4.53422 0.714911 1.78526 0.990094C1.30684 1.03798 0.935661 1.42697 0.906031 1.90686C0.804165 3.55676 0.75 5.16489 0.75 6.99988C0.75 8.83487 0.804165 10.443 0.906032 12.0929C0.935661 12.5728 1.30684 12.9618 1.78526 13.0097C4.53421 13.2849 6.94296 13.2849 9.69191 13.0097Z" stroke="black" stroke-width="0.8" stroke-linecap="round" stroke-linejoin="round"/>
<path d="M10.7271 2.00963H12.1937C12.5349 2.00963 12.8641 2.1788 13.0048 2.48967C13.3638 3.28243 13.3105 4.0384 12.9613 5.2041C12.8385 5.61406 12.4537 5.88558 12.0258 5.88558H10.7271V2.00963Z" stroke="black" stroke-width="0.8" stroke-linecap="round" stroke-linejoin="round"/>
<path d="M10.7271 5.88562H12.1937C12.5349 5.88562 12.8641 6.05479 13.0048 6.36565C13.3638 7.15842 13.3105 7.91438 12.9613 9.08009C12.8385 9.49004 12.4537 9.76156 12.0258 9.76156H10.7271V5.88562Z" stroke="black" stroke-width="0.8" stroke-linecap="round" stroke-linejoin="round"/>
<path d="M4.30103 3.44099H7.17503C7.17503 3.44099 7.92503 3.44099 7.92503 4.19099V5.20099C7.92503 5.20099 7.92503 5.95099 7.17503 5.95099H4.30103C4.30103 5.95099 3.55103 5.95099 3.55103 5.20099V4.19099C3.55103 4.19099 3.55103 3.44099 4.30103 3.44099Z" stroke="black" stroke-width="0.8" stroke-linecap="round" stroke-linejoin="round"/>
</g>
<defs>
<clipPath id="clip0_1284_2">
<rect width="14" height="14" fill="white"/>
</clipPath>
</defs>
</svg>
