<svg width="14" height="14" viewBox="0 0 14 14" fill="none" xmlns="http://www.w3.org/2000/svg">
<g clip-path="url(#clip0_1320_2)">
<path d="M6.354 1.76501C6.2868 1.58217 6.1672 1.42319 6.01015 1.30794C5.85311 1.19269 5.66558 1.12628 5.471 1.11701C4.31948 1.05342 3.16505 1.06478 2.015 1.15101C1.78159 1.16924 1.56189 1.26847 1.3939 1.43153C1.2259 1.5946 1.12017 1.81124 1.095 2.04401C0.758001 4.98001 0.646001 7.92701 0.997001 10.87C1.117 11.868 1.935 12.594 2.913 12.7C5.65399 12.9992 8.41952 12.9968 11.16 12.693C11.6278 12.641 12.0643 12.4327 12.3991 12.1019C12.7339 11.7711 12.9474 11.3371 13.005 10.87C13.223 9.05001 13.28 7.18601 13.145 4.90001C13.1186 4.44146 12.9276 4.00786 12.6069 3.67898C12.2863 3.35009 11.8577 3.14805 11.4 3.11001C10.056 3.00001 9.121 2.99401 7.47 2.95901C7.26977 2.95483 7.07544 2.89051 6.91225 2.77441C6.74907 2.65831 6.62459 2.4958 6.555 2.30801L6.355 1.76601L6.354 1.76501Z" stroke="black" stroke-width="0.9" stroke-linejoin="round"/>
<path d="M0.942001 10.275C1.61441 9.32373 2.43086 8.48299 3.362 7.78299C3.975 7.30899 4.828 7.26999 5.441 7.74499C7.119 9.04399 8.554 10.963 9.522 12.84" stroke="black" stroke-width="0.9" stroke-linecap="round" stroke-linejoin="round"/>
<path d="M9.594 8.01702C10.424 8.01702 10.89 7.55002 10.89 6.72102C10.89 5.89102 10.424 5.42502 9.594 5.42502C8.764 5.42502 8.298 5.89102 8.298 6.72102C8.298 7.55102 8.764 8.01702 9.594 8.01702Z" stroke="black" stroke-width="0.9" stroke-linecap="round" stroke-linejoin="round"/>
</g>
<defs>
<clipPath id="clip0_1320_2">
<rect width="14" height="14" fill="white"/>
</clipPath>
</defs>
</svg>
