<svg width="96" height="96" viewBox="0 0 96 96" fill="none" xmlns="http://www.w3.org/2000/svg">
<g clip-path="url(#clip0_1333_3)">
<mask id="mask0_1333_3" style="mask-type:luminance" maskUnits="userSpaceOnUse" x="0" y="0" width="96" height="96">
<path d="M96 0H0V96H96V0Z" fill="white"/>
</mask>
<g mask="url(#mask0_1333_3)">
<path d="M43.5703 12.1029C43.1095 10.8492 42.2894 9.75902 41.2125 8.96873C40.1356 8.17845 38.8497 7.72306 37.5154 7.6595C29.6193 7.22345 21.7032 7.30135 13.8171 7.89264C12.2166 8.01765 10.7101 8.69808 9.55817 9.81621C8.40617 10.9344 7.68116 12.4199 7.50857 14.0161C5.19772 34.1486 4.42972 54.3566 6.83657 74.5371C7.65942 81.3806 13.2686 86.3589 19.9749 87.0857C38.7702 89.1374 57.7339 89.1209 76.5257 87.0377C79.7335 86.6811 82.7266 85.2528 85.0224 82.9845C87.3182 80.7161 88.7822 77.7401 89.1771 74.5371C90.672 62.0572 91.0629 49.2755 90.1371 33.6001C89.9561 30.4557 88.6464 27.4825 86.4473 25.2273C84.2489 22.972 81.3099 21.5866 78.1714 21.3258C68.9554 20.5715 62.544 20.5304 51.2229 20.2904C49.8498 20.2617 48.5173 19.8206 47.3983 19.0245C46.2793 18.2284 45.4258 17.1141 44.9486 15.8264L43.5771 12.1098L43.5703 12.1029Z" stroke="black" stroke-width="7" stroke-linejoin="round"/>
<path d="M6.45943 70.4571C11.0702 63.9342 16.6688 58.1691 23.0537 53.3691C27.2571 50.1188 33.1063 49.8514 37.3097 53.1085C48.816 62.0159 58.656 75.1749 65.2937 88.0457" stroke="black" stroke-width="7" stroke-linecap="round" stroke-linejoin="round"/>
<path d="M65.7874 54.9738C71.4789 54.9738 74.6743 51.7716 74.6743 46.087C74.6743 40.3956 71.4789 37.2001 65.7874 37.2001C60.096 37.2001 56.9006 40.3956 56.9006 46.087C56.9006 51.7784 60.096 54.9738 65.7874 54.9738Z" stroke="black" stroke-width="7" stroke-linecap="round" stroke-linejoin="round"/>
</g>
</g>
<defs>
<clipPath id="clip0_1333_3">
<rect width="96" height="96" fill="white"/>
</clipPath>
</defs>
</svg>
