<svg width="14" height="14" viewBox="0 0 14 14" fill="none" xmlns="http://www.w3.org/2000/svg">
<path d="M10.5053 4.38496C10.4888 3.86546 10.4679 3.35211 10.4427 2.84564C10.397 1.92654 9.62262 1.17171 8.61039 1.09966C7.6905 1.03419 6.74301 1 5.77527 1C4.80753 1 3.86003 1.03419 2.94014 1.09967C1.9279 1.17172 1.15353 1.92654 1.10781 2.84564C1.03719 4.26513 1 5.7387 1 7.25C1 8.76131 1.03719 10.2349 1.10781 11.6544C1.15353 12.5735 1.9279 13.3283 2.94014 13.4004C3.86003 13.4659 4.80753 13.5 5.77527 13.5C6.74301 13.5 7.6905 13.4659 8.61039 13.4004C9.62262 13.3283 10.397 12.5735 10.4427 11.6544C10.4679 11.1479 10.4888 10.6346 10.5053 10.1151" stroke="black" stroke-linecap="round" stroke-linejoin="round"/>
<path d="M13.4218 7.25003L4.55908 7.25" stroke="black" stroke-linecap="round" stroke-linejoin="round"/>
<path d="M7.40283 4.40625C6.26533 4.975 5.12783 6.1125 4.55908 7.24996C5.12783 8.3875 6.26533 9.525 7.40283 10.0938" stroke="black" stroke-linecap="round" stroke-linejoin="round"/>
</svg>
