<svg width="24" height="24" viewBox="0 0 24 24" fill="none" xmlns="http://www.w3.org/2000/svg">
<path d="M3.375 11.0417C3.375 12.0485 3.5733 13.0454 3.95859 13.9756C4.34388 14.9057 4.9086 15.7509 5.62051 16.4628C6.33243 17.1747 7.1776 17.7395 8.10776 18.1247C9.03792 18.51 10.0349 18.7083 11.0417 18.7083C12.0485 18.7083 13.0454 18.51 13.9756 18.1247C14.9057 17.7395 15.7509 17.1747 16.4628 16.4628C17.1747 15.7509 17.7395 14.9057 18.1247 13.9756C18.51 13.0454 18.7083 12.0485 18.7083 11.0417C18.7083 9.00834 17.9006 7.05829 16.4628 5.62051C15.025 4.18274 13.075 3.375 11.0417 3.375C9.00834 3.375 7.05829 4.18274 5.62051 5.62051C4.18274 7.05829 3.375 9.00834 3.375 11.0417Z" stroke="black" stroke-width="1.5" stroke-linecap="round" stroke-linejoin="round"/>
<path d="M20.625 20.625L16.5042 16.5042" stroke="black" stroke-width="1.5" stroke-linecap="round" stroke-linejoin="round"/>
</svg>
