<svg width="96" height="96" viewBox="0 0 96 96" fill="none" xmlns="http://www.w3.org/2000/svg">
<path d="M80.9691 52.9851C80.9691 53.328 81.0857 53.6709 81.2983 53.9451L85.872 59.7051C86.7002 60.7395 87.197 61.9998 87.2973 63.3211C87.3976 64.6424 87.0968 65.9633 86.4343 67.1109L83.7463 71.7463C83.0853 72.8935 82.0937 73.8148 80.9009 74.3898C79.7082 74.9647 78.3698 75.1666 77.0606 74.9691L69.7714 73.872C69.4287 73.8229 69.0793 73.888 68.7771 74.0571L60.1372 79.0423C59.8387 79.2183 59.6071 79.4884 59.4789 79.8103L56.7909 86.6674C56.3097 87.9004 55.468 88.9598 54.3756 89.7072C53.2833 90.4546 51.991 90.8553 50.6674 90.8571H45.3051C43.9824 90.8559 42.6907 90.4561 41.5984 89.71C40.5061 88.9639 39.664 87.906 39.1817 86.6743L36.4937 79.8171C36.3668 79.4927 36.1351 79.22 35.8354 79.0423L27.2023 74.0571C26.901 73.8856 26.5515 73.8181 26.208 73.8651L18.9189 74.976C17.6085 75.1749 16.2687 74.9738 15.0746 74.3987C13.8805 73.8237 12.8878 72.9016 12.2263 71.7531L9.55201 67.1109C8.88757 65.9646 8.58447 64.6445 8.68234 63.3233C8.78021 62.002 9.2745 60.741 10.1006 59.7051L14.6949 53.9451C14.9156 53.6738 15.0366 53.3349 15.0377 52.9851V43.0149C15.0377 42.672 14.9143 42.3291 14.6949 42.0549L10.1006 36.2949C9.2745 35.259 8.78021 33.998 8.68234 32.6767C8.58447 31.3555 8.88757 30.0354 9.55201 28.8891L12.2263 24.2537C12.8878 23.1052 13.8805 22.1832 15.0746 21.6081C16.2687 21.0331 17.6085 20.8319 18.9189 21.0309L26.1874 22.128C26.5302 22.1771 26.8796 22.112 27.1817 21.9429L35.8354 16.9371C36.1347 16.759 36.3663 16.4864 36.4937 16.1623L39.1954 9.33257C39.677 8.09847 40.5198 7.03838 41.6135 6.29089C42.7072 5.5434 44.001 5.14329 45.3257 5.14285H50.7017C52.0245 5.14413 53.3162 5.54388 54.4085 6.28999C55.5007 7.03611 56.3429 8.09398 56.8251 9.32571L59.5131 16.1623C59.6366 16.4983 59.8697 16.7794 60.1714 16.9577L68.8114 21.9429C69.1127 22.1144 69.4622 22.1819 69.8057 22.1349L77.088 21.024C78.3983 20.825 79.7382 21.0262 80.9323 21.6013C82.1264 22.1763 83.1191 23.0984 83.7806 24.2469L86.4617 28.8891C87.1252 30.0361 87.4271 31.3565 87.328 32.6778C87.2289 33.9991 86.7334 35.2597 85.9063 36.2949L81.312 42.0549C81.0937 42.3271 80.9752 42.6659 80.976 43.0149V52.9851H80.9691Z" stroke="black" stroke-width="7" stroke-linecap="round" stroke-linejoin="round"/>
<path d="M48 61.6869C56.7566 61.6869 61.6869 56.7566 61.6869 48C61.6869 39.2434 56.7566 34.3131 48 34.3131C39.2434 34.3131 34.3132 39.2434 34.3132 48C34.3132 56.7566 39.2434 61.6869 48 61.6869Z" stroke="black" stroke-width="7" stroke-linecap="round" stroke-linejoin="round"/>
</svg>
