<svg width="240" height="220" viewBox="0 0 240 220" fill="none" xmlns="http://www.w3.org/2000/svg">
<path d="M50.1818 0.75H189.818C193.599 0.75 197.277 2.6903 200.024 6.24166C202.775 9.79738 204.341 14.6526 204.341 19.7436V200.256C204.341 205.347 202.775 210.203 200.024 213.758C197.277 217.31 193.599 219.25 189.818 219.25H50.1818C46.4014 219.25 42.7228 217.31 39.9756 213.758C37.2251 210.203 35.6591 205.347 35.6591 200.256V19.7436C35.6591 14.6526 37.2251 9.79738 39.9756 6.24166C42.7228 2.6903 46.4014 0.75 50.1818 0.75ZM191.954 202.71C192.477 202.034 192.75 201.15 192.75 200.256V19.7436C192.75 18.8502 192.477 17.9662 191.954 17.2903C191.428 16.6101 190.667 16.1731 189.818 16.1731H50.1818C49.333 16.1731 48.572 16.6101 48.0458 17.2903C47.523 17.9662 47.25 18.8502 47.25 19.7436V200.256C47.25 201.15 47.523 202.034 48.0458 202.71C48.572 203.39 49.333 203.827 50.1818 203.827H189.818C190.667 203.827 191.428 203.39 191.954 202.71ZM239.25 8.46154V211.538C239.25 213.637 238.604 215.623 237.49 217.063C236.379 218.498 234.92 219.25 233.455 219.25C231.989 219.25 230.53 218.498 229.419 217.063C228.306 215.623 227.659 213.637 227.659 211.538V8.46154C227.659 6.36273 228.306 4.37715 229.419 2.93722C230.53 1.50166 231.989 0.75 233.455 0.75C234.92 0.75 236.379 1.50166 237.49 2.93722C238.604 4.37715 239.25 6.36273 239.25 8.46154ZM12.3409 8.46154V211.538C12.3409 213.637 11.6944 215.623 10.5806 217.063C9.47008 218.498 8.01126 219.25 6.54545 219.25C5.07965 219.25 3.62083 218.498 2.51034 217.063C1.39648 215.623 0.75 213.637 0.75 211.538V8.46154C0.75 6.36273 1.39648 4.37715 2.51034 2.93722C3.62083 1.50166 5.07966 0.75 6.54545 0.75C8.01125 0.75 9.47008 1.50166 10.5806 2.93722C11.6944 4.37715 12.3409 6.36273 12.3409 8.46154Z" fill="#404763" stroke="black" stroke-width="1.5"/>
</svg>
