<svg width="24" height="24" viewBox="0 0 24 24" fill="none" xmlns="http://www.w3.org/2000/svg">
<g clip-path="url(#clip0_1281_2)">
<path d="M9.01547 5.08955C10.3433 2.70742 11.0073 1.51631 12 1.51631C12.9927 1.51631 13.6567 2.70733 14.9845 5.08955L15.328 5.70586C15.7055 6.38273 15.8941 6.72121 16.1883 6.9446C16.4825 7.16789 16.8488 7.25079 17.5816 7.41658L18.2488 7.56752C20.8274 8.15095 22.1167 8.44267 22.4235 9.42908C22.7303 10.4155 21.8513 11.4434 20.0933 13.499L19.6385 14.0309C19.139 14.6151 18.8892 14.9071 18.7768 15.2685C18.6644 15.6299 18.7022 16.0195 18.7777 16.799L18.8464 17.5086C19.1123 20.2513 19.2452 21.6227 18.4421 22.2323C17.6389 22.8419 16.4317 22.2861 14.0174 21.1745L13.3927 20.8868C12.7067 20.5709 12.3637 20.4129 12 20.4129C11.6363 20.4129 11.2932 20.5709 10.6073 20.8868L9.98262 21.1745C7.56819 22.2861 6.36098 22.8419 5.5579 22.2323C4.75481 21.6227 4.88773 20.2513 5.15348 17.5086L5.22219 16.799C5.2978 16.0195 5.33556 15.6299 5.22315 15.2685C5.11083 14.9071 4.861 14.6151 4.36142 14.0309L3.90669 13.499C2.14872 11.4434 1.26974 10.4155 1.5765 9.42908C1.88317 8.44267 3.17251 8.15095 5.75119 7.56752L6.41829 7.41658C7.15112 7.25079 7.51749 7.16789 7.8117 6.9446C8.10591 6.72131 8.29451 6.38273 8.6719 5.70586L9.01547 5.08955Z" stroke="black" stroke-width="1.5"/>
</g>
<defs>
<clipPath id="clip0_1281_2">
<rect width="24" height="24" fill="white"/>
</clipPath>
</defs>
</svg>
